<svg width="22" height="22" viewBox="0 0 22 22" fill="none" xmlns="http://www.w3.org/2000/svg">
<path d="M16.8628 4.1344C16.0214 3.29394 15.5156 2.19805 15.5156 1H14.4614M16.8628 4.1344C17.6295 4.90063 18.6677 5.45788 19.8499 5.67608C20.2173 5.74574 20.6006 5.78293 21 5.78293V9.2191C18.9553 9.2191 17.0596 8.64801 15.5154 7.68211V14.6707C15.5154 18.1627 12.2566 21 8.25775 21C6.16506 21 4.27475 20.2198 2.94888 18.98C1.74015 17.847 1 16.3331 1 14.6707C1 11.2298 4.16295 8.42509 8.08201 8.35079M16.8628 4.1344C16.8423 4.12276 16.8219 4.11101 16.8016 4.09914M5.5741 16.3517C5.18007 15.8781 4.94577 15.2977 4.94577 14.6661C4.94577 13.0734 6.43139 11.7778 8.25785 11.7778C8.59862 11.7778 8.92873 11.8288 9.23756 11.9124V8.40192C8.91806 8.36473 8.59329 8.34149 8.25785 8.34149C8.19924 8.34149 7.72743 8.36884 7.66885 8.36884M14.4558 1H11.5697L11.5645 14.7775C11.5005 16.3192 10.0415 17.5591 8.25775 17.5591C7.15016 17.5591 6.17571 17.0808 5.56869 16.3564" stroke="black" stroke-linejoin="round"/>
</svg>
