<svg width="270" height="71" viewBox="0 0 270 71" fill="none" xmlns="http://www.w3.org/2000/svg">
<g clip-path="url(#clip0_122_1191)">
<path d="M25.731 11.9511C27.5054 11.9511 29.2657 11.944 31.0118 11.9298C32.7721 11.9156 34.3833 11.9014 35.8455 11.8872C37.3077 11.8587 38.5567 11.8232 39.5931 11.7806C40.6295 11.7379 41.3322 11.6811 41.7012 11.61L40.6579 14.4456C40.1892 14.3176 39.6428 14.2039 39.0182 14.1044C38.479 14.0191 37.8187 13.941 37.0379 13.8699C36.2713 13.7846 35.3841 13.742 34.3762 13.742C34.0355 13.742 33.6238 13.7562 33.1412 13.7846C32.6727 13.7989 32.2185 13.8202 31.7784 13.8486C31.2673 13.877 30.7492 13.9054 30.224 13.9339V25.5745C31.6861 25.5603 33.0063 25.5177 34.1846 25.4466C35.3628 25.3755 36.3637 25.3045 37.187 25.2334C38.1525 25.1481 39.0042 25.0486 39.7421 24.9349L39.0823 28.0263C38.1028 27.8984 37.1018 27.7776 36.0797 27.6639C35.1996 27.5644 34.2413 27.4791 33.2051 27.408C32.1688 27.3228 31.1751 27.2801 30.224 27.2801V40.6478C31.8991 40.6478 33.4393 40.5765 34.8447 40.4345C36.2501 40.2924 37.478 40.1288 38.5287 39.9443C39.7493 39.745 40.8639 39.5107 41.8718 39.2407L41.2541 42.6943C41.0838 42.6803 40.8282 42.6658 40.4877 42.6518C40.1468 42.6373 39.7634 42.6233 39.3375 42.6093C38.9261 42.5948 38.4858 42.5808 38.0175 42.5663C37.5632 42.5663 37.1302 42.5595 36.7185 42.5451C36.3068 42.5451 35.9378 42.5379 35.6113 42.5238C35.2989 42.5238 35.0718 42.5238 34.9298 42.5238H25.731V42.4384C25.8161 42.14 25.8942 41.7705 25.9652 41.3297C26.0504 40.8893 26.1214 40.3422 26.1781 39.6884C26.2349 39.0346 26.2775 38.26 26.3059 37.3644C26.3343 36.4548 26.3485 35.3959 26.3485 34.1877V20.3085C26.3485 19.1004 26.3343 18.0486 26.3059 17.1532C26.2775 16.2435 26.2349 15.4618 26.1781 14.808C26.1214 14.14 26.0504 13.5857 25.9652 13.145C25.8942 12.7044 25.8161 12.3349 25.731 12.0364V11.9511ZM60.3979 29.1563L52.8603 38.7289C52.5762 39.0699 52.2994 39.4253 52.0298 39.7947C51.7598 40.1501 51.5186 40.4986 51.3055 40.8396C51.0928 41.1805 50.9153 41.5006 50.7735 41.799C50.6457 42.0834 50.5816 42.3249 50.5816 42.5238H46.4508V42.4384C46.7629 42.1684 47.2032 41.7565 47.7708 41.2022C48.3529 40.6478 48.9703 39.9511 49.6233 39.1128L58.9925 27.3228L49.3681 14.6588C48.8425 13.9765 48.3245 13.408 47.8133 12.9532C47.3025 12.4841 46.9191 12.1785 46.6635 12.0364V11.9511H53.3286C53.3286 12.1217 53.3498 12.342 53.3923 12.6121C53.4492 12.8821 53.5485 13.2019 53.6904 13.5714C53.8326 13.9268 54.0241 14.3247 54.2656 14.7653C54.5208 15.2059 54.8473 15.6821 55.2451 16.1938L61.399 24.274L68.1915 15.7674C68.4471 15.4547 68.6955 15.1136 68.937 14.744C69.1922 14.3745 69.4126 14.0191 69.5969 13.678C69.7956 13.3227 69.9518 12.9958 70.0656 12.6973C70.1934 12.3988 70.2571 12.1501 70.2571 11.9511H74.3882V12.0364C74.246 12.1501 74.0898 12.2852 73.9195 12.4415C73.7492 12.5978 73.5505 12.7897 73.3234 13.0171C73.1103 13.2445 72.8691 13.5146 72.5995 13.8273C72.3298 14.14 72.0246 14.5095 71.6837 14.9359L62.8044 26.1502L72.7273 39.1553C73.4087 40.0365 74.0401 40.7686 74.6222 41.3514C75.2187 41.9198 75.6514 42.2823 75.9214 42.4384V42.5238H69.2988C69.2988 42.1969 69.1642 41.6566 68.8942 40.9034C68.6245 40.1501 68.1206 39.276 67.3822 38.2813L60.3979 29.1563ZM85.845 28.9857C87.2364 29.2415 88.5067 29.27 89.6565 29.071C90.8207 28.8578 91.8142 28.4172 92.6379 27.7491C93.4752 27.0669 94.1214 26.1502 94.5753 24.9989C95.044 23.8476 95.278 22.4405 95.278 20.7775C95.278 19.6263 95.1574 18.5816 94.9162 17.6435C94.6746 16.6913 94.3129 15.8882 93.8301 15.2344C93.3618 14.5664 92.7653 14.0547 92.0414 13.6993C91.3175 13.3298 90.4729 13.145 89.5075 13.145C88.8969 13.145 88.3649 13.1734 87.9106 13.2303C87.4563 13.273 87.0729 13.3227 86.7608 13.3795C86.3915 13.4506 86.0862 13.5288 85.845 13.6141V28.9857ZM81.3521 11.9511C81.6361 11.9795 81.9342 12.008 82.2463 12.0364C82.5159 12.0648 82.8143 12.0862 83.1408 12.1004C83.4814 12.1004 83.8291 12.1004 84.1841 12.1004C84.7377 12.1004 85.4829 12.0364 86.4199 11.9085C87.371 11.7664 88.5776 11.6953 90.0399 11.6953C91.4028 11.6953 92.6591 11.8943 93.8089 12.2923C94.9731 12.6902 95.9806 13.273 96.8327 14.0405C97.6844 14.808 98.3443 15.7461 98.813 16.8547C99.2957 17.9491 99.5369 19.1999 99.5369 20.607C99.5369 22.4973 99.1607 24.1319 98.4084 25.5106C97.656 26.8892 96.648 28.005 95.3845 28.8578C94.1214 29.7106 92.6659 30.2933 91.0194 30.606C89.3728 30.9045 87.6478 30.9187 85.845 30.6486V34.1877C85.845 35.3959 85.8591 36.4548 85.8875 37.3644C85.9303 38.26 85.9728 39.0346 86.0153 39.6884C86.0722 40.3422 86.1359 40.8893 86.2072 41.3297C86.2921 41.7705 86.3774 42.14 86.4624 42.4384V42.5238H81.3521V42.4384C81.437 42.14 81.5152 41.7705 81.5864 41.3297C81.6714 40.8893 81.7423 40.3422 81.7992 39.6884C81.8561 39.0346 81.8985 38.26 81.927 37.3644C81.9554 36.4548 81.9695 35.3959 81.9695 34.1877V20.3085C81.9695 19.1004 81.9554 18.0486 81.927 17.1532C81.8985 16.2435 81.8561 15.4618 81.7992 14.808C81.7423 14.14 81.6714 13.5857 81.5864 13.145C81.5152 12.7044 81.437 12.3349 81.3521 12.0364V11.9511ZM101.241 40.6478C101.241 40.335 101.298 40.0438 101.412 39.7734C101.54 39.4894 101.703 39.2476 101.901 39.0486C102.114 38.8356 102.356 38.672 102.625 38.5585C102.909 38.4305 103.207 38.3663 103.52 38.3663C103.846 38.3663 104.144 38.4305 104.414 38.5585C104.698 38.672 104.939 38.8356 105.138 39.0486C105.351 39.2476 105.514 39.4894 105.628 39.7734C105.756 40.0438 105.819 40.335 105.819 40.6478C105.819 41.3016 105.599 41.8488 105.159 42.2892C104.719 42.73 104.173 42.9502 103.52 42.9502C103.207 42.9502 102.909 42.8864 102.625 42.7585C102.356 42.6446 102.114 42.4881 101.901 42.2892C101.703 42.0762 101.54 41.8343 101.412 41.5644C101.298 41.28 101.241 40.9747 101.241 40.6478ZM113.571 20.3085C113.571 19.1004 113.557 18.0486 113.529 17.1532C113.5 16.2435 113.458 15.4618 113.401 14.808C113.344 14.14 113.273 13.5857 113.188 13.145C113.117 12.7044 113.039 12.3349 112.954 12.0364V11.9511C113.238 11.9653 113.536 11.9724 113.848 11.9724C114.118 11.9866 114.416 11.9937 114.743 11.9937C115.083 11.9937 115.431 11.9937 115.786 11.9937C116.297 11.9937 116.985 11.944 117.851 11.8445C118.732 11.745 119.86 11.6953 121.237 11.6953C122.515 11.6953 123.693 11.8658 124.772 12.207C125.851 12.5339 126.78 13.01 127.561 13.6354C128.356 14.2608 128.974 15.0354 129.414 15.9593C129.868 16.8689 130.095 17.9065 130.095 19.072C130.095 20.0527 129.96 20.9339 129.691 21.7156C129.421 22.4831 129.038 23.1583 128.541 23.741C128.058 24.3096 127.469 24.7928 126.774 25.1907C126.092 25.5745 125.34 25.8801 124.516 26.1075C125.723 26.2923 126.823 26.605 127.817 27.0456C128.811 27.472 129.662 28.0121 130.372 28.6659C131.096 29.3197 131.65 30.0872 132.033 30.9684C132.43 31.8355 132.629 32.802 132.629 33.8679C132.629 36.8669 131.643 39.1196 129.669 40.6262C127.696 42.1187 124.743 42.8648 120.811 42.8648C120.385 42.8648 119.889 42.8435 119.32 42.801C118.753 42.7725 118.171 42.7372 117.575 42.6943C116.992 42.6518 116.418 42.6093 115.85 42.5663C115.282 42.5379 114.785 42.5238 114.359 42.5238H112.954V42.4384C113.039 42.14 113.117 41.7705 113.188 41.3297C113.273 40.8893 113.344 40.3422 113.401 39.6884C113.458 39.0346 113.5 38.26 113.529 37.3644C113.557 36.4548 113.571 35.3959 113.571 34.1877V20.3085ZM121.386 27.408C120.421 27.408 119.612 27.4436 118.959 27.5147C118.306 27.5857 117.802 27.6568 117.447 27.7278V34.1877C117.447 35.8507 117.475 37.2223 117.532 38.3026C117.589 39.3827 117.667 40.264 117.766 40.9463C118.306 41.0173 118.845 41.081 119.385 41.138C119.924 41.1949 120.357 41.2234 120.683 41.2234C123.338 41.2234 125.276 40.6334 126.497 39.4537C127.732 38.26 128.349 36.4334 128.349 33.9746C128.349 33.008 128.2 32.1268 127.902 31.3309C127.618 30.5207 127.185 29.8243 126.603 29.2415C126.035 28.6588 125.311 28.2111 124.431 27.8984C123.565 27.5715 122.55 27.408 121.386 27.408ZM117.447 25.8091C117.844 25.8517 118.199 25.8801 118.512 25.8943C118.824 25.8943 119.157 25.8943 119.512 25.8943C120.477 25.8943 121.358 25.7593 122.153 25.4893C122.948 25.205 123.622 24.7857 124.176 24.2314C124.743 23.677 125.183 22.9877 125.496 22.1633C125.808 21.3248 125.964 20.3512 125.964 19.2425C125.964 18.3187 125.851 17.4801 125.623 16.7268C125.396 15.9735 125.056 15.3339 124.601 14.808C124.162 14.2679 123.615 13.8557 122.962 13.5714C122.309 13.2872 121.564 13.145 120.726 13.145C120.187 13.145 119.711 13.1663 119.299 13.209C118.902 13.2516 118.561 13.3014 118.277 13.3582C117.951 13.4151 117.674 13.4862 117.447 13.5714V25.8091ZM143.831 40.6478C145.506 40.6478 147.046 40.5765 148.451 40.4345C149.857 40.2924 151.085 40.1288 152.135 39.9443C153.356 39.745 154.471 39.5107 155.478 39.2407L154.861 42.6943C154.69 42.6803 154.435 42.6658 154.094 42.6518C153.753 42.6373 153.37 42.6233 152.944 42.6093C152.533 42.5948 152.092 42.5808 151.624 42.5663C151.17 42.5663 150.737 42.5595 150.325 42.5451C149.914 42.5451 149.545 42.5379 149.218 42.5238C148.906 42.5238 148.678 42.5238 148.537 42.5238H139.338V42.4384C139.423 42.14 139.501 41.7705 139.572 41.3297C139.657 40.8893 139.728 40.3422 139.785 39.6884C139.842 39.0346 139.884 38.26 139.913 37.3644C139.941 36.4548 139.955 35.3959 139.955 34.1877V20.3085C139.955 19.1004 139.941 18.0486 139.913 17.1532C139.884 16.2435 139.842 15.4618 139.785 14.808C139.728 14.14 139.657 13.5857 139.572 13.145C139.501 12.7044 139.423 12.3349 139.338 12.0364V11.9511H144.448V12.0364C144.363 12.3349 144.278 12.7044 144.193 13.145C144.122 13.5857 144.058 14.14 144.001 14.808C143.958 15.4618 143.916 16.2435 143.873 17.1532C143.845 18.0486 143.831 19.1004 143.831 20.3085V40.6478ZM175.218 11.4395C177.589 11.4395 179.775 11.8303 181.777 12.6121C183.793 13.3795 185.532 14.4669 186.994 15.874C188.456 17.2669 189.599 18.944 190.422 20.9055C191.245 22.8669 191.657 25.0344 191.657 27.408C191.657 28.7583 191.501 30.0872 191.189 31.3949C190.877 32.7025 190.415 33.939 189.804 35.1045C189.208 36.27 188.47 37.3502 187.59 38.3451C186.71 39.3258 185.702 40.1785 184.566 40.9034C183.445 41.6141 182.203 42.1684 180.84 42.5663C179.477 42.9787 178.008 43.1848 176.432 43.1848C174.061 43.1848 171.868 42.8082 169.853 42.0549C167.851 41.2872 166.119 40.207 164.657 38.814C163.195 37.4213 162.052 35.7512 161.228 33.804C160.405 31.8426 159.993 29.6679 159.993 27.2801C159.993 25.9299 160.15 24.6009 160.462 23.2933C160.774 21.9857 161.228 20.742 161.825 19.5623C162.435 18.3826 163.173 17.3024 164.039 16.3217C164.919 15.3268 165.92 14.4669 167.042 13.742C168.177 13.0171 169.427 12.4557 170.789 12.0577C172.167 11.6455 173.643 11.4395 175.218 11.4395ZM176.432 41.2659C178.008 41.2659 179.449 40.9816 180.755 40.4132C182.061 39.8448 183.182 39.0201 184.119 37.94C185.07 36.8598 185.809 35.5451 186.334 33.9959C186.859 32.4324 187.122 30.6629 187.122 28.6872C187.122 26.4984 186.866 24.473 186.355 22.6111C185.858 20.7349 185.113 19.1146 184.119 17.7501C183.125 16.3714 181.883 15.2984 180.393 14.5308C178.917 13.7491 177.192 13.3582 175.218 13.3582C173.643 13.3582 172.202 13.6425 170.896 14.211C169.59 14.7653 168.461 15.5755 167.51 16.6415C166.573 17.7075 165.842 19.0151 165.317 20.5644C164.792 22.1136 164.529 23.876 164.529 25.8517C164.529 28.0263 164.778 30.0588 165.274 31.9492C165.771 33.8253 166.517 35.4527 167.51 36.8314C168.504 38.2103 169.746 39.2973 171.237 40.0935C172.727 40.8753 174.459 41.2659 176.432 41.2659ZM199.558 11.9511L221.491 35.3177V20.3085C221.491 19.1004 221.476 18.0486 221.448 17.1532C221.42 16.2435 221.377 15.4618 221.32 14.808C221.264 14.14 221.192 13.5857 221.107 13.145C221.036 12.7044 220.958 12.3349 220.873 12.0364V11.9511H224.663V12.0364C224.578 12.3349 224.5 12.7044 224.429 13.145C224.358 13.5857 224.294 14.14 224.237 14.808C224.181 15.4618 224.138 16.2435 224.11 17.1532C224.081 18.0486 224.067 19.1004 224.067 20.3085V42.9502H223.322L201.389 19.6049V34.1877C201.389 35.3959 201.403 36.4548 201.432 37.3644C201.46 38.26 201.503 39.0346 201.56 39.6884C201.617 40.3422 201.68 40.8893 201.751 41.3297C201.823 41.7705 201.9 42.14 201.986 42.4384V42.5238H198.195V42.4384C198.281 42.14 198.358 41.7705 198.43 41.3297C198.515 40.8893 198.586 40.3422 198.642 39.6884C198.699 39.0346 198.742 38.26 198.77 37.3644C198.799 36.4548 198.813 35.3959 198.813 34.1877V20.3085C198.813 19.1004 198.799 18.0486 198.77 17.1532C198.742 16.2435 198.699 15.4618 198.642 14.808C198.586 14.14 198.515 13.5857 198.43 13.145C198.358 12.7044 198.281 12.3349 198.195 12.0364V11.9511H199.558ZM237.164 13.7846C237.135 15.3765 237.107 16.9186 237.079 18.411C237.064 19.0507 237.05 19.7045 237.036 20.3725C237.036 21.0405 237.029 21.7014 237.015 22.3552C237.015 22.9948 237.007 23.6131 236.993 24.21C236.993 24.7928 236.993 25.3116 236.993 25.7664C236.993 26.7187 237.001 27.87 237.015 29.2202C237.029 30.5705 237.043 31.9563 237.057 33.3776C237.086 34.7989 237.121 36.1634 237.164 37.471C237.206 38.7787 237.256 39.8661 237.313 40.7329C237.511 40.7614 237.774 40.797 238.101 40.8396C238.441 40.868 238.796 40.8965 239.166 40.925C239.535 40.939 239.896 40.9531 240.251 40.9675C240.606 40.9816 240.904 40.9888 241.146 40.9888C242.139 40.9888 243.155 40.925 244.191 40.797C245.241 40.6547 246.249 40.3988 247.214 40.0293C248.194 39.6599 249.11 39.1553 249.961 38.5156C250.827 37.8619 251.579 37.0233 252.218 35.9999C252.871 34.9766 253.383 33.7472 253.752 32.3116C254.121 30.8619 254.305 29.1563 254.305 27.1948C254.305 25.0202 254.043 23.0872 253.517 21.3958C252.992 19.6902 252.218 18.2547 251.197 17.0892C250.189 15.9237 248.932 15.0425 247.427 14.4456C245.937 13.8344 244.219 13.5288 242.274 13.5288C241.891 13.5288 241.458 13.543 240.975 13.5714C240.493 13.5857 240.01 13.607 239.527 13.6354C239.059 13.6496 238.612 13.678 238.186 13.7207C237.774 13.7491 237.433 13.7704 237.164 13.7846ZM232.501 11.8658C232.827 11.8801 233.132 11.8943 233.416 11.9085C233.657 11.9227 233.906 11.9369 234.161 11.9511C234.417 11.9511 234.623 11.9511 234.779 11.9511C235.048 11.9511 235.496 11.9369 236.121 11.9085C236.759 11.8801 237.483 11.8516 238.292 11.8232C239.101 11.7948 239.939 11.7664 240.805 11.7379C241.685 11.7095 242.508 11.6953 243.275 11.6953C245.333 11.6953 247.293 11.9511 249.152 12.4628C251.012 12.9745 252.644 13.8131 254.05 14.9786C255.455 16.144 256.57 17.672 257.393 19.5623C258.216 21.4527 258.628 23.7766 258.628 26.5339C258.628 28.5096 258.408 30.2862 257.968 31.8639C257.542 33.4416 256.939 34.8344 256.158 36.0426C255.377 37.2507 254.44 38.2881 253.347 39.1553C252.268 40.0081 251.069 40.7116 249.748 41.2659C248.442 41.8203 247.044 42.2254 245.553 42.4813C244.063 42.7372 242.523 42.8648 240.933 42.8648C240.365 42.8648 239.676 42.8435 238.867 42.801C238.072 42.7725 237.27 42.7372 236.461 42.6943C235.652 42.6518 234.885 42.6093 234.161 42.5663C233.452 42.5379 232.898 42.5238 232.501 42.5238V42.4384C232.585 42.14 232.664 41.7705 232.734 41.3297C232.82 40.8893 232.891 40.3422 232.948 39.6884C233.004 39.0346 233.047 38.26 233.075 37.3644C233.104 36.4548 233.118 35.3959 233.118 34.1877V20.3085C233.118 19.1004 233.104 18.0415 233.075 17.1319C233.047 16.208 233.004 15.4192 232.948 14.7653C232.891 14.0973 232.82 13.5359 232.734 13.0811C232.664 12.6263 232.585 12.2496 232.501 11.9511V11.8658Z" fill="white"/>
<path d="M0 60.7485H170.646" stroke="white" stroke-width="2"/>
<path d="M181.567 66.8233V55.3418H182.714V59.759L182.586 59.456C182.99 59.2327 183.414 59.0573 183.86 58.9298C184.306 58.7916 184.726 58.7225 185.119 58.7225C185.777 58.7225 186.329 58.8447 186.775 59.0892C187.232 59.3337 187.577 59.7058 187.81 60.2055C188.054 60.6945 188.177 61.3271 188.177 62.1031V66.8233H187.03V62.1031C187.03 61.359 186.86 60.7849 186.52 60.3809C186.18 59.9769 185.671 59.7749 184.991 59.7749C184.62 59.7749 184.243 59.8281 183.86 59.9344C183.489 60.0407 183.106 60.2002 182.714 60.4128V66.8233H181.567ZM193.467 67.0625C193.117 67.0625 192.761 67.0253 192.4 66.9509C192.05 66.8765 191.721 66.7489 191.413 66.5682C191.115 66.3874 190.871 66.1429 190.68 65.8346C190.5 65.5157 190.409 65.117 190.409 64.6386C190.409 63.9795 190.531 63.4533 190.776 63.0599C191.031 62.6559 191.376 62.3689 191.811 62.1988C192.257 62.0181 192.767 61.9277 193.34 61.9277C193.775 61.9277 194.152 61.9543 194.471 62.0074C194.789 62.0606 195.071 62.1403 195.315 62.2466C195.57 62.3423 195.798 62.4539 196 62.5815L196.223 63.634C195.979 63.4533 195.623 63.2991 195.156 63.1715C194.699 63.0333 194.195 62.9642 193.643 62.9642C192.974 62.9642 192.459 63.0918 192.098 63.347C191.737 63.6021 191.556 63.9742 191.556 64.4632C191.556 64.8566 191.662 65.1702 191.875 65.4041C192.098 65.6379 192.374 65.8027 192.703 65.8984C193.043 65.9941 193.388 66.0419 193.738 66.0419C194.428 66.0419 194.949 65.9941 195.299 65.8984C195.66 65.7921 195.84 65.5582 195.84 65.1968V61.545C195.84 60.9284 195.66 60.4766 195.299 60.1895C194.938 59.9025 194.423 59.759 193.754 59.759C193.329 59.759 192.878 59.8228 192.4 59.9503C191.933 60.0673 191.53 60.2586 191.19 60.5244V59.3763C191.519 59.1636 191.96 59.0042 192.512 58.8979C193.064 58.7809 193.6 58.7225 194.12 58.7225C194.471 58.7225 194.795 58.7597 195.092 58.8341C195.389 58.8979 195.655 58.9989 195.888 59.1371C196.122 59.2646 196.318 59.4347 196.478 59.6474C196.647 59.8494 196.775 60.0885 196.86 60.365C196.955 60.6307 197.003 60.9337 197.003 61.2739V65.133C197.003 65.6964 196.833 66.1163 196.493 66.3927C196.164 66.6691 195.729 66.8499 195.187 66.9349C194.657 67.02 194.083 67.0625 193.467 67.0625ZM199.611 66.8233V58.866H200.757V66.8233H199.611ZM199.547 57.4467V56.187H200.821V57.4467H199.547ZM203.373 66.8233V59.5038C203.5 59.4507 203.744 59.3603 204.105 59.2327C204.477 59.1052 204.918 58.9882 205.427 58.8819C205.948 58.7756 206.484 58.7225 207.036 58.7225C207.121 58.7225 207.206 58.7331 207.291 58.7544C207.376 58.7756 207.461 58.7969 207.546 58.8181V59.8387C207.27 59.8068 206.999 59.7909 206.733 59.7909C206.479 59.7909 206.229 59.8068 205.985 59.8387C205.741 59.86 205.496 59.8919 205.252 59.9344C205.008 59.9769 204.764 60.0194 204.52 60.062V66.8233H203.373ZM216.242 67.0625C215.668 67.0625 215.185 67.004 214.792 66.8871C214.41 66.7701 214.012 66.6054 213.598 66.3927V65.1808C213.927 65.3615 214.219 65.5157 214.474 65.6433C214.729 65.7708 214.989 65.8665 215.254 65.9303C215.52 65.9834 215.822 66.01 216.162 66.01C216.693 66.01 217.123 65.8931 217.452 65.6592C217.792 65.4253 217.962 65.1223 217.962 64.7502C217.962 64.4526 217.877 64.224 217.707 64.0645C217.548 63.9051 217.341 63.7722 217.086 63.6659C216.831 63.5596 216.566 63.4479 216.29 63.331C215.982 63.246 215.668 63.1556 215.35 63.0599C215.042 62.9536 214.755 62.8207 214.49 62.6613C214.235 62.4912 214.028 62.2785 213.869 62.0234C213.709 61.7576 213.63 61.4174 213.63 61.0028C213.63 60.5988 213.709 60.2533 213.869 59.9663C214.039 59.6793 214.256 59.4454 214.522 59.2646C214.787 59.0733 215.084 58.9351 215.414 58.85C215.743 58.765 216.072 58.7225 216.401 58.7225C216.879 58.7225 217.288 58.7862 217.627 58.9138C217.967 59.0414 218.318 59.1849 218.679 59.3444V60.4925C218.275 60.2799 217.914 60.1098 217.596 59.9822C217.277 59.844 216.9 59.7749 216.465 59.7749C216.029 59.7749 215.637 59.8653 215.286 60.046C214.946 60.2161 214.777 60.4819 214.777 60.8433C214.777 61.141 214.861 61.3802 215.031 61.5609C215.212 61.731 215.445 61.8692 215.732 61.9756C216.019 62.0712 216.327 62.1669 216.656 62.2626C216.921 62.3476 217.197 62.4433 217.484 62.5496C217.771 62.6453 218.036 62.7782 218.28 62.9483C218.525 63.1078 218.721 63.3204 218.87 63.5862C219.029 63.8519 219.109 64.1921 219.109 64.6067C219.109 65.1702 218.965 65.6379 218.679 66.01C218.392 66.3715 218.026 66.6373 217.58 66.8073C217.144 66.9774 216.698 67.0625 216.242 67.0625ZM223.76 66.9509C223.197 66.9509 222.725 66.7808 222.343 66.4406C221.96 66.0898 221.769 65.5742 221.769 64.8938V59.9184H220.384V58.866H221.769V56.6175H222.916V58.866H224.971V59.9184H222.916V64.527C222.916 64.9735 222.985 65.3084 223.123 65.5316C223.261 65.7549 223.542 65.8665 223.967 65.8665C224.158 65.8665 224.344 65.8506 224.525 65.8187C224.705 65.7761 224.854 65.7283 224.971 65.6751V66.7595C224.822 66.8127 224.631 66.8552 224.397 66.8871C224.174 66.9296 223.962 66.9509 223.76 66.9509ZM230.374 67.0625C229.674 67.0625 229.074 66.9402 228.575 66.6957C228.076 66.4512 227.693 66.0951 227.428 65.6273C227.173 65.1595 227.046 64.5855 227.046 63.9051V58.866H228.192V63.6499C228.192 64.4579 228.368 65.0532 228.718 65.4359C229.079 65.808 229.631 65.9941 230.374 65.9941C231.118 65.9941 231.664 65.808 232.015 65.4359C232.376 65.0532 232.556 64.4579 232.556 63.6499V58.866H233.703V63.9051C233.703 64.915 233.411 65.6964 232.827 66.2492C232.254 66.7914 231.436 67.0625 230.374 67.0625ZM239.55 67.0625C239.168 67.0625 238.764 67.004 238.34 66.8871C237.915 66.7808 237.511 66.5788 237.129 66.2811C236.758 65.9728 236.45 65.5369 236.205 64.9735C235.972 64.3994 235.855 63.6553 235.855 62.741C235.855 61.5078 236.152 60.535 236.747 59.8228C237.352 59.0999 238.265 58.7384 239.486 58.7384C239.72 58.7384 239.996 58.7703 240.315 58.8341C240.633 58.8979 240.946 58.9776 241.254 59.0733C241.562 59.169 241.817 59.27 242.019 59.3763L241.621 59.7749V55.5013H242.767V65.4519C242.767 65.7496 242.661 66.0047 242.449 66.2173C242.247 66.4193 241.982 66.5841 241.653 66.7117C241.323 66.8286 240.973 66.9137 240.601 66.9668C240.23 67.0306 239.879 67.0625 239.55 67.0625ZM239.566 66.01C240.118 66.01 240.596 65.9462 241 65.8187C241.414 65.6911 241.621 65.5316 241.621 65.3403V60.349C241.291 60.1576 240.936 60.0194 240.554 59.9344C240.182 59.8387 239.826 59.7909 239.486 59.7909C238.913 59.7909 238.446 59.9184 238.085 60.1736C237.734 60.4181 237.474 60.7636 237.304 61.2101C237.145 61.646 237.066 62.1563 237.066 62.741C237.066 63.3151 237.129 63.8519 237.257 64.3516C237.384 64.8406 237.628 65.2393 237.989 65.5476C238.35 65.8559 238.876 66.01 239.566 66.01ZM245.385 66.8233V58.866H246.532V66.8233H245.385ZM245.321 57.4467V56.187H246.596V57.4467H245.321ZM252.412 67.0625C251.17 67.0625 250.246 66.6957 249.641 65.9622C249.046 65.218 248.749 64.1868 248.749 62.8686C248.749 61.4865 249.062 60.45 249.689 59.759C250.326 59.068 251.223 58.7225 252.38 58.7225C253.241 58.7225 253.941 58.8979 254.483 59.2487C255.024 59.5889 255.423 60.0726 255.677 60.6998C255.932 61.3164 256.06 62.0393 256.06 62.8686C256.06 64.1762 255.741 65.2021 255.104 65.9462C254.478 66.6904 253.58 67.0625 252.412 67.0625ZM252.396 66.01C253.044 66.01 253.548 65.8718 253.909 65.5954C254.27 65.3084 254.525 64.931 254.674 64.4632C254.833 63.9848 254.913 63.4533 254.913 62.8686C254.913 62.2413 254.833 61.6991 254.674 61.242C254.515 60.7742 254.249 60.4128 253.878 60.1576C253.517 59.9025 253.023 59.7749 252.396 59.7749C251.759 59.7749 251.26 59.9131 250.899 60.1895C250.538 60.4659 250.278 60.838 250.119 61.3058C249.97 61.7629 249.896 62.2839 249.896 62.8686C249.896 63.8041 250.082 64.5642 250.453 65.1489C250.825 65.723 251.473 66.01 252.396 66.01Z" fill="white"/>
</g>
<defs>
<clipPath id="clip0_122_1191">
<rect width="270" height="71" fill="white"/>
</clipPath>
</defs>
</svg>
