<svg width="452" height="119" viewBox="0 0 452 119" fill="none" xmlns="http://www.w3.org/2000/svg">
<g clip-path="url(#clip0_122_1296)">
<path d="M43.0752 20.0311C46.0458 20.0311 48.9927 20.0192 51.9157 19.9954C54.8626 19.9716 57.5599 19.9478 60.0077 19.924C62.4555 19.8763 64.5465 19.8168 66.2815 19.7453C68.0165 19.6738 69.1928 19.5786 69.8105 19.4594L68.0641 24.212C67.2794 23.9975 66.3646 23.807 65.3191 23.6402C64.4163 23.4973 63.311 23.3663 62.0039 23.2471C60.7206 23.1042 59.2353 23.0327 57.548 23.0327C56.9776 23.0327 56.2885 23.0566 55.4804 23.1042C54.6962 23.1281 53.9358 23.1638 53.199 23.2114C52.3435 23.2591 51.4761 23.3067 50.5968 23.3544V42.8648C53.0446 42.841 55.2547 42.7694 57.2272 42.6504C59.1997 42.5312 60.8751 42.4121 62.2535 42.293C63.8697 42.1501 65.2956 41.9833 66.531 41.7927L65.4263 46.9741C63.7866 46.7597 62.1109 46.5572 60.3998 46.3666C58.9264 46.1999 57.3222 46.057 55.5874 45.9378C53.8526 45.7949 52.189 45.7234 50.5968 45.7234V68.1285C53.401 68.1285 55.9795 68.0088 58.3322 67.7708C60.685 67.5328 62.7406 67.2586 64.4995 66.9493C66.543 66.6152 68.4088 66.2226 70.0962 65.7701L69.062 71.5585C68.777 71.5349 68.3491 71.5107 67.779 71.4872C67.2083 71.463 66.5665 71.4395 65.8536 71.4159C65.1648 71.3917 64.4278 71.3682 63.6437 71.344C62.8832 71.344 62.1584 71.3326 61.4692 71.3084C60.78 71.3084 60.1621 71.2963 59.6155 71.2727C59.0927 71.2727 58.7125 71.2727 58.4748 71.2727H43.0752V71.1296C43.2178 70.6294 43.3485 70.0102 43.4673 69.2714C43.6099 68.5332 43.7288 67.6162 43.8238 66.5204C43.9189 65.4246 43.9902 64.1264 44.0377 62.6253C44.0852 61.1007 44.109 59.3259 44.109 57.301V34.0387C44.109 32.0137 44.0852 30.2509 44.0377 28.7501C43.9902 27.2255 43.9189 25.9153 43.8238 24.8195C43.7288 23.6998 43.6099 22.7708 43.4673 22.0323C43.3485 21.2938 43.2178 20.6744 43.0752 20.1741V20.0311ZM101.11 48.868L88.4917 64.9123C88.0162 65.4837 87.5528 66.0794 87.1014 66.6986C86.6494 67.2942 86.2456 67.8784 85.8889 68.4498C85.5327 69.0213 85.2356 69.5577 84.9982 70.0579C84.7843 70.5346 84.677 70.9393 84.677 71.2727H77.7617V71.1296C78.2842 70.6771 79.0213 69.9866 79.9716 69.0576C80.9461 68.1285 81.9796 66.9607 83.0728 65.5556L98.7575 45.7949L82.6455 24.5693C81.7656 23.4258 80.8985 22.4729 80.0427 21.7106C79.1876 20.9245 78.5458 20.4123 78.1179 20.1741V20.0311H89.2757C89.2757 20.3171 89.3112 20.6863 89.3823 21.1389C89.4776 21.5915 89.6439 22.1275 89.8813 22.7469C90.1194 23.3425 90.44 24.0095 90.8444 24.7479C91.2716 25.4864 91.8182 26.2845 92.4841 27.1421L102.786 40.685L114.157 26.4274C114.585 25.9033 115.001 25.3316 115.405 24.7122C115.833 24.0929 116.201 23.4973 116.51 22.9256C116.843 22.33 117.104 21.7821 117.295 21.2819C117.509 20.7815 117.615 20.3647 117.615 20.0311H124.531V20.1741C124.293 20.3647 124.031 20.591 123.746 20.853C123.461 21.1151 123.129 21.4367 122.748 21.8179C122.392 22.199 121.988 22.6516 121.537 23.1757C121.085 23.6998 120.574 24.3192 120.003 25.0339L105.139 43.8296L121.75 65.6269C122.891 67.1039 123.948 68.3308 124.923 69.3077C125.921 70.2603 126.646 70.868 127.098 71.1296V71.2727H116.011C116.011 70.7248 115.786 69.8193 115.334 68.5567C114.882 67.2942 114.039 65.8293 112.803 64.162L101.11 48.868ZM143.711 48.5821C146.04 49.0109 148.166 49.0586 150.091 48.725C152.04 48.3677 153.703 47.6292 155.082 46.5095C156.484 45.3661 157.566 43.8296 158.326 41.9C159.11 39.9703 159.502 37.612 159.502 34.8248C159.502 32.8952 159.3 31.1442 158.896 29.572C158.492 27.9759 157.886 26.6299 157.078 25.5341C156.294 24.4145 155.296 23.5569 154.084 22.9613C152.872 22.3419 151.458 22.0323 149.842 22.0323C148.82 22.0323 147.929 22.0799 147.169 22.1752C146.408 22.2466 145.766 22.33 145.244 22.4253C144.625 22.5444 144.114 22.6754 143.711 22.8184V48.5821ZM136.189 20.0311C136.665 20.0788 137.164 20.1265 137.686 20.1741C138.137 20.2217 138.637 20.2575 139.184 20.2813C139.754 20.2813 140.336 20.2813 140.93 20.2813C141.857 20.2813 143.104 20.1741 144.673 19.9597C146.265 19.7215 148.285 19.6024 150.733 19.6024C153.015 19.6024 155.118 19.9359 157.043 20.6029C158.992 21.27 160.678 22.2466 162.105 23.5331C163.531 24.8195 164.635 26.3917 165.42 28.2498C166.228 30.0842 166.632 32.1805 166.632 34.5389C166.632 37.7072 166.002 40.4468 164.743 42.7575C163.483 45.0683 161.796 46.9384 159.68 48.3677C157.566 49.797 155.129 50.7738 152.373 51.2978C149.616 51.7981 146.729 51.8219 143.711 51.3693V57.301C143.711 59.3259 143.734 61.1007 143.782 62.6253C143.853 64.1264 143.925 65.4246 143.996 66.5204C144.091 67.6162 144.197 68.5332 144.317 69.2714C144.459 70.0102 144.602 70.6294 144.744 71.1296V71.2727H136.189V71.1296C136.331 70.6294 136.462 70.0102 136.581 69.2714C136.724 68.5332 136.842 67.6162 136.938 66.5204C137.033 65.4246 137.104 64.1264 137.152 62.6253C137.199 61.1007 137.223 59.3259 137.223 57.301V34.0387C137.223 32.0137 137.199 30.2509 137.152 28.7501C137.104 27.2255 137.033 25.9153 136.938 24.8195C136.842 23.6998 136.724 22.7708 136.581 22.0323C136.462 21.2938 136.331 20.6744 136.189 20.1741V20.0311ZM169.485 68.1285C169.485 67.6041 169.58 67.116 169.77 66.6629C169.984 66.1869 170.257 65.7816 170.59 65.4481C170.947 65.0911 171.351 64.8168 171.802 64.6266C172.277 64.4121 172.776 64.3046 173.299 64.3046C173.846 64.3046 174.345 64.4121 174.796 64.6266C175.272 64.8168 175.676 65.0911 176.008 65.4481C176.365 65.7816 176.638 66.1869 176.828 66.6629C177.042 67.116 177.149 67.6041 177.149 68.1285C177.149 69.2243 176.781 70.1413 176.044 70.8795C175.307 71.6183 174.393 71.9874 173.299 71.9874C172.776 71.9874 172.277 71.8805 171.802 71.666C171.351 71.4751 170.947 71.2129 170.59 70.8795C170.257 70.5225 169.984 70.1171 169.77 69.6646C169.58 69.188 169.485 68.6764 169.485 68.1285ZM190.126 34.0387C190.126 32.0137 190.103 30.2509 190.055 28.7501C190.008 27.2255 189.936 25.9153 189.841 24.8195C189.746 23.6998 189.627 22.7708 189.484 22.0323C189.366 21.2938 189.235 20.6744 189.093 20.1741V20.0311C189.568 20.055 190.067 20.0669 190.59 20.0669C191.041 20.0907 191.541 20.1026 192.087 20.1026C192.657 20.1026 193.239 20.1026 193.834 20.1026C194.689 20.1026 195.842 20.0192 197.292 19.8525C198.765 19.6857 200.654 19.6024 202.959 19.6024C205.098 19.6024 207.071 19.8882 208.877 20.46C210.683 21.0079 212.239 21.8059 213.546 22.8541C214.878 23.9023 215.911 25.2006 216.648 26.749C217.408 28.2736 217.788 30.0127 217.788 31.9661C217.788 33.6098 217.563 35.0868 217.112 36.397C216.66 37.6834 216.019 38.815 215.186 39.7917C214.379 40.7446 213.392 41.5546 212.228 42.2215C211.087 42.8648 209.828 43.3769 208.449 43.7581C210.469 44.0678 212.311 44.5919 213.974 45.3304C215.638 46.045 217.064 46.9503 218.252 48.0461C219.464 49.1419 220.391 50.4283 221.032 51.9053C221.698 53.3585 222.031 54.9783 222.031 56.765C222.031 61.7915 220.379 65.5671 217.076 68.0922C213.772 70.5937 208.829 71.8442 202.246 71.8442C201.534 71.8442 200.702 71.8086 199.751 71.7373C198.801 71.6896 197.826 71.6304 196.828 71.5585C195.854 71.4872 194.891 71.4159 193.941 71.344C192.99 71.2963 192.158 71.2727 191.445 71.2727H189.093V71.1296C189.235 70.6294 189.366 70.0102 189.484 69.2714C189.627 68.5332 189.746 67.6162 189.841 66.5204C189.936 65.4246 190.008 64.1264 190.055 62.6253C190.103 61.1007 190.126 59.3259 190.126 57.301V34.0387ZM203.209 45.9378C201.593 45.9378 200.239 45.9974 199.145 46.1165C198.052 46.2356 197.208 46.3547 196.614 46.4738V57.301C196.614 60.0882 196.662 62.3871 196.757 64.1977C196.852 66.0081 196.982 67.4851 197.149 68.6287C198.052 68.7477 198.955 68.8546 199.858 68.95C200.761 69.0455 201.486 69.0932 202.033 69.0932C206.476 69.0932 209.72 68.1043 211.764 66.1271C213.832 64.1264 214.866 61.0649 214.866 56.9437C214.866 55.3237 214.616 53.8468 214.117 52.5127C213.642 51.1549 212.917 49.9876 211.942 49.0109C210.992 48.0342 209.78 47.2838 208.307 46.7597C206.857 46.2118 205.158 45.9378 203.209 45.9378ZM196.614 43.2578C197.28 43.3293 197.874 43.3769 198.397 43.4008C198.919 43.4008 199.478 43.4008 200.072 43.4008C201.688 43.4008 203.161 43.1744 204.493 42.7218C205.823 42.2454 206.952 41.5426 207.879 40.6136C208.829 39.6845 209.566 38.5291 210.089 37.1474C210.612 35.7419 210.873 34.1101 210.873 32.2519C210.873 30.7035 210.683 29.298 210.303 28.0355C209.922 26.7728 209.352 25.7008 208.592 24.8195C207.855 23.9142 206.94 23.2233 205.847 22.7469C204.753 22.2704 203.506 22.0323 202.104 22.0323C201.201 22.0323 200.405 22.068 199.715 22.1394C199.05 22.2109 198.48 22.2943 198.005 22.3896C197.458 22.4848 196.995 22.604 196.614 22.7469V43.2578ZM240.783 68.1285C243.587 68.1285 246.165 68.0088 248.518 67.7708C250.871 67.5328 252.926 67.2586 254.685 66.9493C256.729 66.6152 258.595 66.2226 260.282 65.7701L259.248 71.5585C258.963 71.5349 258.535 71.5107 257.965 71.4872C257.394 71.463 256.752 71.4395 256.04 71.4159C255.351 71.3917 254.614 71.3682 253.83 71.344C253.069 71.344 252.344 71.3326 251.655 71.3084C250.966 71.3084 250.348 71.2963 249.802 71.2727C249.279 71.2727 248.898 71.2727 248.661 71.2727H233.261V71.1296C233.404 70.6294 233.534 70.0102 233.654 69.2714C233.796 68.5332 233.914 67.6162 234.01 66.5204C234.105 65.4246 234.176 64.1264 234.224 62.6253C234.271 61.1007 234.295 59.3259 234.295 57.301V34.0387C234.295 32.0137 234.271 30.2509 234.224 28.7501C234.176 27.2255 234.105 25.9153 234.01 24.8195C233.914 23.6998 233.796 22.7708 233.654 22.0323C233.534 21.2938 233.404 20.6744 233.261 20.1741V20.0311H241.817V20.1741C241.674 20.6744 241.531 21.2938 241.389 22.0323C241.27 22.7708 241.163 23.6998 241.068 24.8195C240.997 25.9153 240.925 27.2255 240.854 28.7501C240.807 30.2509 240.783 32.0137 240.783 34.0387V68.1285ZM293.328 19.1736C297.297 19.1736 300.957 19.8287 304.308 21.1389C307.682 22.4253 310.594 24.2477 313.041 26.6061C315.489 28.9407 317.402 31.7517 318.781 35.0391C320.159 38.3266 320.848 41.9595 320.848 45.9378C320.848 48.2009 320.587 50.4283 320.064 52.62C319.541 54.8116 318.769 56.8841 317.746 58.8376C316.748 60.7909 315.513 62.6015 314.04 64.2689C312.566 65.9127 310.879 67.3419 308.978 68.5567C307.1 69.748 305.021 70.6771 302.739 71.344C300.458 72.0351 297.998 72.3806 295.36 72.3806C291.391 72.3806 287.72 71.7494 284.345 70.4868C280.994 69.2001 278.095 67.3896 275.648 65.0548C273.2 62.7206 271.286 59.9215 269.908 56.6578C268.53 53.3704 267.84 49.7255 267.84 45.7234C267.84 43.4603 268.102 41.2329 268.625 39.0413C269.148 36.8497 269.908 34.7652 270.906 32.7879C271.928 30.8107 273.164 29.0002 274.613 27.3565C276.087 25.6889 277.762 24.2477 279.64 23.0327C281.541 21.8179 283.633 20.8769 285.913 20.2098C288.219 19.519 290.691 19.1736 293.328 19.1736ZM295.36 69.1645C297.998 69.1645 300.41 68.6878 302.597 67.7352C304.783 66.7826 306.66 65.4004 308.229 63.59C309.821 61.7796 311.057 59.5761 311.936 56.9794C312.816 54.359 313.255 51.3931 313.255 48.0818C313.255 44.4132 312.827 41.0185 311.972 37.8978C311.14 34.7533 309.892 32.0375 308.229 29.7506C306.565 27.4399 304.486 25.6413 301.991 24.3549C299.519 23.0447 296.632 22.3896 293.328 22.3896C290.691 22.3896 288.278 22.866 286.092 23.8189C283.905 24.7479 282.016 26.1058 280.424 27.8925C278.855 29.6792 277.631 31.8708 276.752 34.4674C275.873 37.0641 275.434 40.018 275.434 43.3293C275.434 46.9741 275.849 50.3807 276.681 53.549C277.513 56.6935 278.761 59.4212 280.424 61.7319C282.087 64.043 284.167 65.8649 286.663 67.1994C289.157 68.5096 292.057 69.1645 295.36 69.1645ZM334.075 20.0311L370.792 59.1949V34.0387C370.792 32.0137 370.768 30.2509 370.72 28.7501C370.672 27.2255 370.601 25.9153 370.506 24.8195C370.411 23.6998 370.292 22.7708 370.15 22.0323C370.031 21.2938 369.9 20.6744 369.758 20.1741V20.0311H376.103V20.1741C375.961 20.6744 375.83 21.2938 375.711 22.0323C375.592 22.7708 375.485 23.6998 375.39 24.8195C375.295 25.9153 375.223 27.2255 375.176 28.7501C375.128 30.2509 375.105 32.0137 375.105 34.0387V71.9874H373.857L337.141 32.8594V57.301C337.141 59.3259 337.164 61.1007 337.212 62.6253C337.259 64.1264 337.33 65.4246 337.426 66.5204C337.521 67.6162 337.627 68.5332 337.746 69.2714C337.866 70.0102 337.996 70.6294 338.138 71.1296V71.2727H331.793V71.1296C331.936 70.6294 332.066 70.0102 332.186 69.2714C332.328 68.5332 332.447 67.6162 332.542 66.5204C332.637 65.4246 332.708 64.1264 332.756 62.6253C332.803 61.1007 332.827 59.3259 332.827 57.301V34.0387C332.827 32.0137 332.803 30.2509 332.756 28.7501C332.708 27.2255 332.637 25.9153 332.542 24.8195C332.447 23.6998 332.328 22.7708 332.186 22.0323C332.066 21.2938 331.936 20.6744 331.793 20.1741V20.0311H334.075ZM397.029 23.1042C396.982 25.7723 396.934 28.357 396.887 30.8584C396.863 31.9304 396.839 33.0262 396.815 34.1458C396.815 35.2655 396.804 36.3732 396.78 37.469C396.78 38.5411 396.768 39.5773 396.744 40.5778C396.744 41.5546 396.744 42.424 396.744 43.1864C396.744 44.7825 396.756 46.712 396.78 48.9751C396.804 51.2383 396.827 53.561 396.851 55.9431C396.898 58.3253 396.958 60.6123 397.029 62.804C397.1 64.9957 397.184 66.8182 397.279 68.271C397.611 68.3187 398.051 68.3786 398.598 68.4498C399.168 68.4976 399.762 68.5453 400.381 68.593C400.998 68.6166 401.604 68.6401 402.198 68.6643C402.792 68.6878 403.291 68.6999 403.696 68.6999C405.359 68.6999 407.058 68.593 408.793 68.3786C410.552 68.1399 412.239 67.711 413.855 67.0918C415.495 66.4726 417.028 65.6269 418.454 64.5546C419.903 63.4591 421.162 62.0535 422.232 60.3384C423.325 58.6232 424.181 56.5626 424.799 54.1565C425.416 51.7266 425.726 48.868 425.726 45.5805C425.726 41.9357 425.286 38.6959 424.406 35.861C423.527 33.0023 422.232 30.5963 420.521 28.6429C418.834 26.6895 416.731 25.2125 414.212 24.212C411.716 23.1876 408.84 22.6754 405.585 22.6754C404.943 22.6754 404.218 22.6992 403.41 22.7469C402.602 22.7708 401.794 22.8065 400.986 22.8541C400.202 22.8779 399.454 22.9256 398.74 22.997C398.051 23.0447 397.481 23.0804 397.029 23.1042ZM389.223 19.8882C389.769 19.9121 390.28 19.9359 390.755 19.9597C391.16 19.9835 391.575 20.0073 392.003 20.0311C392.431 20.0311 392.775 20.0311 393.037 20.0311C393.488 20.0311 394.237 20.0073 395.283 19.9597C396.352 19.9121 397.564 19.8644 398.919 19.8168C400.273 19.7692 401.676 19.7215 403.125 19.6738C404.598 19.6262 405.977 19.6024 407.26 19.6024C410.706 19.6024 413.986 20.0311 417.099 20.8888C420.212 21.7464 422.945 23.1519 425.298 25.1053C427.65 27.0587 429.516 29.6196 430.894 32.7879C432.273 35.9563 432.962 39.8513 432.962 44.4727C432.962 47.784 432.594 50.7618 431.857 53.4061C431.144 56.0503 430.134 58.3849 428.827 60.4098C427.52 62.4347 425.951 64.1735 424.121 65.6269C422.315 67.0562 420.307 68.2354 418.097 69.1645C415.91 70.0936 413.57 70.7726 411.074 71.2015C408.579 71.6304 406.001 71.8442 403.339 71.8442C402.389 71.8442 401.236 71.8086 399.881 71.7373C398.55 71.6896 397.208 71.6304 395.853 71.5585C394.498 71.4872 393.215 71.4159 392.003 71.344C390.815 71.2963 389.888 71.2727 389.223 71.2727V71.1296C389.365 70.6294 389.496 70.0102 389.614 69.2714C389.757 68.5332 389.876 67.6162 389.971 66.5204C390.066 65.4246 390.138 64.1264 390.185 62.6253C390.233 61.1007 390.256 59.3259 390.256 57.301V34.0387C390.256 32.0137 390.233 30.239 390.185 28.7144C390.138 27.1659 390.066 25.8438 389.971 24.7479C389.876 23.6283 389.757 22.6873 389.614 21.925C389.496 21.1627 389.365 20.5315 389.223 20.0311V19.8882Z" fill="#39302C"/>
<path d="M0 101.818H285.674" stroke="#39302C" stroke-width="2"/>
<path d="M303.956 112V92.7563H305.876V100.16L305.662 99.652C306.338 99.2778 307.049 98.9838 307.796 98.77C308.542 98.5384 309.244 98.4225 309.902 98.4225C311.004 98.4225 311.928 98.6274 312.675 99.0373C313.439 99.4471 314.017 100.071 314.408 100.908C314.817 101.728 315.021 102.788 315.021 104.089V112H313.101V104.089C313.101 102.841 312.817 101.879 312.248 101.202C311.679 100.525 310.826 100.187 309.689 100.187C309.066 100.187 308.435 100.276 307.796 100.454C307.173 100.632 306.533 100.899 305.876 101.256V112H303.956ZM323.878 112.401C323.292 112.401 322.696 112.339 322.092 112.214C321.505 112.089 320.954 111.875 320.439 111.572C319.941 111.269 319.532 110.86 319.212 110.343C318.91 109.808 318.759 109.14 318.759 108.338C318.759 107.234 318.963 106.352 319.372 105.692C319.799 105.015 320.377 104.534 321.105 104.249C321.852 103.946 322.705 103.795 323.665 103.795C324.394 103.795 325.025 103.839 325.558 103.928C326.091 104.017 326.562 104.151 326.971 104.329C327.398 104.49 327.78 104.677 328.118 104.891L328.491 106.655C328.082 106.352 327.487 106.093 326.705 105.879C325.94 105.648 325.096 105.532 324.172 105.532C323.052 105.532 322.19 105.746 321.585 106.173C320.981 106.601 320.679 107.225 320.679 108.044C320.679 108.704 320.857 109.229 321.212 109.621C321.585 110.013 322.047 110.289 322.599 110.45C323.167 110.61 323.745 110.69 324.332 110.69C325.487 110.69 326.358 110.61 326.945 110.45C327.549 110.272 327.851 109.88 327.851 109.274V103.153C327.851 102.12 327.549 101.363 326.945 100.881C326.34 100.4 325.478 100.16 324.358 100.16C323.647 100.16 322.892 100.267 322.092 100.481C321.31 100.677 320.634 100.997 320.066 101.443V99.5184C320.617 99.162 321.354 98.8947 322.279 98.7165C323.203 98.5205 324.101 98.4225 324.972 98.4225C325.558 98.4225 326.1 98.4849 326.598 98.6096C327.096 98.7165 327.54 98.8858 327.931 99.1174C328.322 99.3313 328.651 99.6164 328.918 99.9727C329.202 100.311 329.415 100.712 329.558 101.175C329.717 101.621 329.798 102.129 329.798 102.699V109.167C329.798 110.111 329.513 110.815 328.944 111.278C328.393 111.742 327.664 112.045 326.758 112.187C325.869 112.33 324.909 112.401 323.878 112.401ZM334.163 112V98.6631H336.082V112H334.163ZM334.056 96.2844V94.1729H336.189V96.2844H334.056ZM340.461 112V99.7322C340.674 99.6431 341.083 99.4916 341.687 99.2778C342.309 99.064 343.047 98.868 343.9 98.6898C344.771 98.5116 345.669 98.4225 346.593 98.4225C346.735 98.4225 346.878 98.4404 347.02 98.476C347.162 98.5116 347.304 98.5473 347.446 98.5829V100.293C346.984 100.24 346.531 100.213 346.087 100.213C345.66 100.213 345.242 100.24 344.833 100.293C344.425 100.329 344.016 100.383 343.607 100.454C343.198 100.525 342.789 100.596 342.381 100.668V112H340.461ZM362.004 112.401C361.045 112.401 360.236 112.303 359.578 112.107C358.938 111.911 358.272 111.635 357.578 111.278V109.247C358.129 109.55 358.618 109.808 359.045 110.022C359.471 110.236 359.907 110.396 360.351 110.503C360.796 110.592 361.302 110.637 361.871 110.637C362.76 110.637 363.48 110.441 364.031 110.049C364.6 109.657 364.884 109.149 364.884 108.525C364.884 108.027 364.742 107.643 364.457 107.376C364.191 107.109 363.844 106.886 363.418 106.708C362.991 106.53 362.547 106.343 362.084 106.147C361.569 106.004 361.045 105.853 360.511 105.692C359.996 105.514 359.516 105.291 359.071 105.024C358.645 104.739 358.298 104.383 358.032 103.955C357.765 103.51 357.632 102.939 357.632 102.245C357.632 101.567 357.765 100.988 358.032 100.507C358.316 100.026 358.68 99.6342 359.125 99.3313C359.569 99.0105 360.067 98.7789 360.618 98.6364C361.169 98.4938 361.72 98.4225 362.271 98.4225C363.071 98.4225 363.755 98.5294 364.324 98.7433C364.893 98.9571 365.479 99.1976 366.084 99.4649V101.389C365.408 101.033 364.804 100.748 364.271 100.534C363.737 100.302 363.106 100.187 362.378 100.187C361.649 100.187 360.991 100.338 360.405 100.641C359.836 100.926 359.551 101.371 359.551 101.977C359.551 102.476 359.694 102.877 359.978 103.18C360.28 103.465 360.671 103.697 361.151 103.875C361.631 104.035 362.147 104.196 362.698 104.356C363.142 104.499 363.604 104.659 364.084 104.837C364.564 104.997 365.008 105.22 365.417 105.505C365.826 105.773 366.155 106.129 366.404 106.574C366.67 107.02 366.804 107.59 366.804 108.285C366.804 109.229 366.564 110.013 366.084 110.637C365.604 111.243 364.991 111.688 364.244 111.973C363.515 112.258 362.769 112.401 362.004 112.401ZM374.591 112.214C373.648 112.214 372.857 111.929 372.218 111.359C371.578 110.771 371.258 109.906 371.258 108.766V100.427H368.938V98.6631H371.258V94.8945H373.177V98.6631H376.617V100.427H373.177V108.151C373.177 108.9 373.293 109.461 373.524 109.835C373.755 110.209 374.226 110.396 374.937 110.396C375.257 110.396 375.568 110.37 375.87 110.316C376.173 110.245 376.421 110.165 376.617 110.076V111.893C376.368 111.982 376.048 112.053 375.657 112.107C375.284 112.178 374.928 112.214 374.591 112.214ZM385.663 112.401C384.49 112.401 383.486 112.196 382.65 111.786C381.815 111.376 381.175 110.779 380.731 109.995C380.304 109.211 380.091 108.249 380.091 107.109V98.6631H382.01V106.681C382.01 108.035 382.304 109.033 382.89 109.675C383.495 110.298 384.419 110.61 385.663 110.61C386.908 110.61 387.823 110.298 388.41 109.675C389.014 109.033 389.316 108.035 389.316 106.681V98.6631H391.236V107.109C391.236 108.802 390.747 110.111 389.769 111.038C388.81 111.947 387.441 112.401 385.663 112.401ZM401.024 112.401C400.384 112.401 399.709 112.303 398.998 112.107C398.287 111.929 397.611 111.59 396.972 111.091C396.349 110.575 395.834 109.844 395.425 108.9C395.034 107.937 394.839 106.69 394.839 105.158C394.839 103.091 395.336 101.461 396.332 100.267C397.345 99.0551 398.874 98.4493 400.918 98.4493C401.309 98.4493 401.771 98.5027 402.304 98.6096C402.837 98.7165 403.362 98.8502 403.877 99.0105C404.393 99.1709 404.819 99.3402 405.157 99.5184L404.49 100.187V93.0236H406.41V109.701C406.41 110.2 406.232 110.628 405.877 110.984C405.539 111.323 405.095 111.599 404.544 111.813C403.993 112.009 403.406 112.151 402.784 112.241C402.162 112.347 401.575 112.401 401.024 112.401ZM401.051 110.637C401.975 110.637 402.775 110.53 403.451 110.316C404.144 110.102 404.49 109.835 404.49 109.514V101.149C403.939 100.828 403.344 100.596 402.704 100.454C402.082 100.293 401.486 100.213 400.918 100.213C399.958 100.213 399.176 100.427 398.571 100.855C397.985 101.265 397.549 101.844 397.265 102.592C396.998 103.323 396.865 104.178 396.865 105.158C396.865 106.12 396.972 107.02 397.185 107.857C397.398 108.677 397.807 109.345 398.411 109.862C399.016 110.379 399.896 110.637 401.051 110.637ZM410.792 112V98.6631H412.712V112H410.792ZM410.686 96.2844V94.1729H412.819V96.2844H410.686ZM422.557 112.401C420.477 112.401 418.93 111.786 417.917 110.557C416.922 109.309 416.424 107.581 416.424 105.372C416.424 103.055 416.948 101.318 417.997 100.16C419.064 99.0016 420.566 98.4225 422.503 98.4225C423.943 98.4225 425.116 98.7165 426.023 99.3045C426.929 99.8747 427.596 100.685 428.022 101.737C428.449 102.77 428.662 103.982 428.662 105.372C428.662 107.563 428.129 109.283 427.063 110.53C426.014 111.777 424.512 112.401 422.557 112.401ZM422.53 110.637C423.614 110.637 424.458 110.405 425.063 109.942C425.667 109.461 426.094 108.828 426.343 108.044C426.609 107.243 426.743 106.352 426.743 105.372C426.743 104.32 426.609 103.412 426.343 102.645C426.076 101.861 425.632 101.256 425.01 100.828C424.405 100.4 423.579 100.187 422.53 100.187C421.463 100.187 420.628 100.418 420.024 100.881C419.419 101.345 418.984 101.968 418.717 102.752C418.468 103.519 418.344 104.392 418.344 105.372C418.344 106.94 418.655 108.214 419.277 109.194C419.899 110.156 420.983 110.637 422.53 110.637Z" fill="#39302C"/>
</g>
<defs>
<clipPath id="clip0_122_1296">
<rect width="452" height="119" fill="white"/>
</clipPath>
</defs>
</svg>
