<svg width="27" height="47" viewBox="0 0 27 47" fill="none" xmlns="http://www.w3.org/2000/svg">
<path d="M26.3623 22.0358L3.4501 0.558552C3.06779 0.200012 2.55988 0 2.0317 0C1.50352 0 0.995607 0.200012 0.613306 0.558552L0.588636 0.58282C0.40266 0.756634 0.254574 0.96585 0.153379 1.19774C0.0521851 1.42964 0 1.67936 0 1.93172C0 2.18408 0.0521851 2.43381 0.153379 2.6657C0.254574 2.89759 0.40266 3.10681 0.588636 3.28062L22.1647 23.504L0.588636 43.7194C0.40266 43.8932 0.254574 44.1024 0.153379 44.3343C0.0521851 44.5662 0 44.8159 0 45.0683C0 45.3206 0.0521851 45.5704 0.153379 45.8023C0.254574 46.0341 0.40266 46.2434 0.588636 46.4172L0.613306 46.4414C0.995607 46.8 1.50352 47 2.0317 47C2.55988 47 3.06779 46.8 3.4501 46.4414L26.3623 24.9642C26.5638 24.7753 26.7243 24.5481 26.8339 24.2965C26.9435 24.0448 27 23.7738 27 23.5C27 23.2262 26.9435 22.9552 26.8339 22.7035C26.7243 22.4519 26.5638 22.2247 26.3623 22.0358Z" fill="#EDE5DB"/>
</svg>
