<svg width="23" height="24" viewBox="0 0 23 24" fill="none" xmlns="http://www.w3.org/2000/svg">
<path fill-rule="evenodd" clip-rule="evenodd" d="M16.5165 23.0124C14.8972 22.9528 10.3081 22.3187 5.50192 17.5147C0.696904 12.7095 0.0638067 8.12248 0.00308339 6.5024C-0.0868771 4.03349 1.80454 1.63541 3.98946 0.698889C4.25256 0.5853 4.54069 0.542053 4.82556 0.573392C5.11043 0.604731 5.38226 0.70958 5.61437 0.877649C7.41358 2.18855 8.65503 4.17178 9.72106 5.73115C9.95562 6.07375 10.0559 6.49065 10.0028 6.90241C9.94973 7.31418 9.74697 7.69203 9.43319 7.96396L7.23928 9.59303C7.13329 9.66956 7.05868 9.78194 7.02931 9.90932C6.99994 10.0367 7.01781 10.1704 7.0796 10.2856C7.57663 11.1884 8.46049 12.533 9.47255 13.5449C10.4846 14.5567 11.8936 15.4989 12.8596 16.052C12.9807 16.12 13.1232 16.139 13.2579 16.1051C13.3926 16.0712 13.5092 15.987 13.5837 15.8699L15.0119 13.6966C15.2744 13.3479 15.6617 13.1143 16.0927 13.0448C16.5237 12.9752 16.9649 13.075 17.3238 13.3234C18.906 14.4184 20.7525 15.6383 22.1041 17.3685C22.2859 17.6023 22.4015 17.8805 22.4389 18.1742C22.4763 18.4679 22.434 18.7663 22.3167 19.0381C21.3754 21.2338 18.9937 23.1035 16.5165 23.0124Z" fill="#39302C"/>
</svg>
