<svg width="27" height="47" viewBox="0 0 27 47" fill="none" xmlns="http://www.w3.org/2000/svg">
<path d="M0.637663 24.9642L23.5499 46.4414C23.9322 46.8 24.4401 47 24.9683 47C25.4965 47 26.0044 46.8 26.3867 46.4414L26.4114 46.4172C26.5973 46.2434 26.7454 46.0341 26.8466 45.8023C26.9478 45.5704 27 45.3206 27 45.0683C27 44.8159 26.9478 44.5662 26.8466 44.3343C26.7454 44.1024 26.5973 43.8932 26.4114 43.7194L4.83529 23.496L26.4114 3.28062C26.5973 3.10681 26.7454 2.89759 26.8466 2.6657C26.9478 2.43381 27 2.18409 27 1.93172C27 1.67936 26.9478 1.42964 26.8466 1.19775C26.7454 0.965855 26.5973 0.756634 26.4114 0.582821L26.3867 0.558552C26.0044 0.200012 25.4965 -3.8147e-06 24.9683 -3.8147e-06C24.4401 -3.8147e-06 23.9322 0.200012 23.5499 0.558552L0.637663 22.0358C0.436159 22.2247 0.27574 22.4519 0.16613 22.7035C0.0565195 22.9552 0 23.2262 0 23.5C0 23.7738 0.0565195 24.0448 0.16613 24.2965C0.27574 24.5481 0.436159 24.7753 0.637663 24.9642Z" fill="#EDE5DB"/>
</svg>
